HIERARCHY
ROOT hip
{
	OFFSET 0.000000 0.000000 0.000000
	CHANNELS 6 Xposition Yposition Zposition Xrotation Zrotation Yrotation 
	JOINT abdomen
	{
		OFFSET 0.000000 3.422050 0.000000
		CHANNELS 3 Xrotation Zrotation Yrotation 
		JOINT chest
		{
			OFFSET 0.000000 8.486693 -0.684411
			CHANNELS 3 Xrotation Zrotation Yrotation 
			JOINT neck
			{
				OFFSET 0.000000 10.266162 -0.273764
				CHANNELS 3 Xrotation Zrotation Yrotation 
				JOINT head
				{
					OFFSET 0.000000 3.148285 0.000000
					CHANNELS 3 Xrotation Zrotation Yrotation 
					End Site
					{
						OFFSET 0.000000 3.148289 0.000000
					}
				}
			}
			JOINT lCollar
			{
				OFFSET 3.422053 6.707223 -0.821293
				CHANNELS 3 Yrotation Zrotation Xrotation 
				JOINT lShldr
				{
					OFFSET 3.285171 0.000000 0.000000
					CHANNELS 3 Zrotation Yrotation Xrotation 
					JOINT lForeArm
					{
						OFFSET 10.129278 0.000000 0.000000
						CHANNELS 3 Yrotation Zrotation Xrotation 
						JOINT lHand
						{
							OFFSET 8.486692 0.000000 0.000000
							CHANNELS 3 Zrotation Yrotation Xrotation 
							End Site
							{
								OFFSET 4.106464 0.000000 0.000000
							}
						}
					}
				}
			}
			JOINT rCollar
			{
				OFFSET -3.558935 6.707223 -0.821293
				CHANNELS 3 Yrotation Zrotation Xrotation 
				JOINT rShldr
				{
					OFFSET -3.148289 0.000000 0.000000
					CHANNELS 3 Zrotation Yrotation Xrotation 
					JOINT rForeArm
					{
						OFFSET -10.266159 0.000000 0.000000
						CHANNELS 3 Yrotation Zrotation Xrotation 
						JOINT rHand
						{
							OFFSET -8.349810 0.000000 0.000000
							CHANNELS 3 Zrotation Yrotation Xrotation 
							End Site
							{
								OFFSET -4.106464 0.000000 0.000000
							}
						}
					}
				}
			}
		}
	}
	JOINT lThigh
	{
		OFFSET 5.338403 -1.642589 1.368821
		CHANNELS 3 Xrotation Zrotation Yrotation 
		JOINT lShin
		{
			OFFSET -2.053232 -20.121670 0.000000
			CHANNELS 3 Xrotation Zrotation Yrotation 
			JOINT lFoot
			{
				OFFSET 0.000000 -19.300380 -1.231939
				CHANNELS 3 Xrotation Yrotation Zrotation 
				End Site
				{
					OFFSET 0.000000 -2.463878 4.653993
				}
			}
		}
	}
	JOINT rThigh
	{
		OFFSET -5.338403 -1.642589 1.368821
		CHANNELS 3 Xrotation Zrotation Yrotation 
		JOINT rShin
		{
			OFFSET 2.053232 -20.121670 0.000000
			CHANNELS 3 Xrotation Zrotation Yrotation 
			JOINT rFoot
			{
				OFFSET 0.000000 -19.300380 -1.231939
				CHANNELS 3 Xrotation Yrotation Zrotation 
				End Site
				{
					OFFSET 0.000000 -2.463878 4.653993
				}
			}
		}
	}
}
MOTION
Frames: 10
Frame Time: 0.100000
0.000000 43.528500 0.000000 0.000000 0.000000 0.000000 0.000000 0.000000 0.000000 0.000000 0.000000 0.000000 0.000000 0.000000 0.000000 0.000000 0.000000 0.000000 0.000000 0.000000 0.000000 0.000000 0.000000 0.000000 0.000000 0.000000 0.000000 0.000000 0.000000 0.000000 0.000000 0.000000 0.000000 0.000000 0.000000 0.000000 0.000000 0.000000 0.000000 0.000000 0.000000 0.000000 0.000000 0.000000 0.000000 0.000000 0.000000 0.000000 0.000000 0.000000 0.000000 0.000000 0.000000 0.000000 0.000000 0.000000 0.000000 0.000000 0.000000 0.000000 
9.999443 9.997749 0.000000 -90.025597 85.996727 -0.023873 -0.002165 9.999076 0.998546 14.998176 0.000000 0.000000 27.997561 0.000000 0.000000 15.996989 0.000000 0.000000 0.000000 0.000000 0.000000 -74.002686 12.996549 19.998129 -36.001720 -0.003011 19.999016 -23.002533 0.000000 0.000000 0.000000 0.000000 -10.002190 -14.001397 41.997860 -60.001274 126.999115 -5.002185 -19.998112 -10.000309 14.999073 -0.000910 -27.002258 14.998037 -0.003271 60.998932 0.000000 0.000000 49.998291 -0.002817 4.997855 -36.001469 -5.001413 -0.002501 90.995331 0.000000 0.000000 26.996685 0.000000 0.000000 
9.999443 9.997749 0.000000 -90.025597 85.996727 -0.023873 -0.002165 9.999076 0.998546 14.998176 0.000000 0.000000 27.997562 0.000000 0.000000 15.996989 0.000000 0.000000 0.000000 0.000000 0.000000 -74.002693 12.996551 19.998131 -36.616154 0.381034 19.974085 -21.900618 -0.349132 -2.861843 0.000000 0.000000 -10.002190 -14.001400 41.997864 -60.001278 126.998833 -5.002234 -18.923300 -10.000309 14.999073 -0.000910 -27.002258 14.998037 -0.003271 60.768944 -0.018540 0.768184 49.998291 -0.002817 4.997855 -35.746040 -6.259105 -0.853800 90.995331 0.000000 0.000000 26.996687 0.000000 0.000000 
9.999443 9.997749 0.000000 -90.025597 85.996727 -0.023873 -0.002165 9.999076 0.998546 14.998176 0.000000 0.000000 27.997559 0.000000 0.000000 15.996989 0.000000 0.000000 0.000000 0.000000 0.000000 -74.002678 12.996548 19.998127 -37.230732 0.765494 19.953259 -20.773304 -0.644937 -5.753688 0.000000 0.000000 -10.002190 -14.001398 41.997860 -60.001274 126.998528 -5.002289 -17.847446 -10.000308 14.999073 -0.000910 -27.002258 14.998037 -0.003271 60.538578 -0.034002 1.536851 49.998283 -0.002817 4.997855 -35.470551 -7.515326 -1.714700 90.995331 0.000000 0.000000 26.996681 0.000000 0.000000 
9.999443 9.997749 0.000000 -90.025597 85.996727 -0.023873 -0.002165 9.999076 0.998546 14.998176 0.000000 0.000000 27.997561 0.000000 0.000000 15.996989 0.000000 0.000000 0.000000 0.000000 0.000000 -74.002686 12.996549 19.998129 -37.845455 1.150295 19.936548 -19.624640 -0.884861 -8.670674 0.000000 0.000000 -10.002190 -14.001397 41.997860 -60.001274 126.998245 -5.002348 -16.770739 -10.000309 14.999073 -0.000910 -27.002258 14.998037 -0.003271 60.307941 -0.046378 2.305914 49.998287 -0.002817 4.997855 -35.174637 -8.769288 -2.585811 90.995331 0.000000 0.000000 26.996685 0.000000 0.000000 
9.999443 9.997749 0.000000 -90.025597 85.996727 -0.023873 -0.002165 9.999076 0.998546 14.998176 0.000000 0.000000 27.997562 0.000000 0.000000 15.996989 0.000000 0.000000 0.000000 0.000000 0.000000 -74.002693 12.996551 19.998131 -38.460331 1.535358 19.923965 -18.459002 -1.066783 -11.607595 0.000000 0.000000 -10.002190 -14.001396 41.997860 -60.001274 126.997955 -5.002415 -15.693365 -10.000310 14.999075 -0.000910 -27.002258 14.998037 -0.003270 60.077087 -0.055659 3.075287 49.998295 -0.002817 4.997856 -34.857937 -10.020194 -3.467753 90.995331 0.000000 0.000000 26.996687 0.000000 0.000000 
9.999443 9.997749 0.000000 -90.025597 85.996727 -0.023873 -0.002165 9.999075 0.998546 14.998176 0.000000 0.000000 27.997559 0.000000 0.000000 15.996989 0.000000 0.000000 0.000000 0.000000 0.000000 -74.002686 12.996548 19.998125 -39.075386 1.920613 19.915518 -17.281027 -1.189066 -14.558965 0.000000 0.000000 -10.002188 -14.001397 41.997860 -60.001274 126.997681 -5.002486 -14.615514 -10.000309 14.999073 -0.000910 -27.002258 14.998037 -0.003271 59.846058 -0.061840 3.844878 49.998287 -0.002817 4.997855 -34.520016 -11.267227 -4.361156 90.995331 0.000000 0.000000 26.996681 0.000000 0.000000 
9.999443 9.997749 0.000000 -90.025597 85.996727 -0.023873 -0.002165 9.999076 0.998546 14.998176 0.000000 0.000000 27.997561 0.000000 0.000000 15.996989 0.000000 0.000000 0.000000 0.000000 0.000000 -74.002686 12.996549 19.998129 -39.690598 2.305984 19.911203 -16.095570 -1.250594 -17.519093 0.000000 0.000000 -10.002189 -14.001398 41.997856 -60.001274 126.997383 -5.002562 -13.537374 -10.000309 14.999073 -0.000910 -27.002258 14.998037 -0.003271 59.614922 -0.064918 4.614601 49.998291 -0.002817 4.997855 -34.160477 -12.509562 -5.266660 90.995331 0.000000 0.000000 26.996683 0.000000 0.000000 
9.999443 9.997749 0.000000 -90.025597 85.996727 -0.023873 -0.002165 9.999076 0.998546 14.998176 0.000000 0.000000 27.997561 0.000000 0.000000 15.996989 0.000000 0.000000 0.000000 0.000000 0.000000 -74.002686 12.996549 19.998129 -40.305988 2.691395 19.911028 -14.907592 -1.250803 -20.482159 0.000000 0.000000 -10.002190 -14.001397 41.997860 -60.001274 126.997108 -5.002645 -12.459141 -10.000309 14.999073 -0.000910 -27.002258 14.998037 -0.003271 59.383778 -0.064890 5.384370 49.998291 -0.002817 4.997855 -33.778889 -13.746365 -6.184917 90.995331 0.000000 0.000000 26.996685 0.000000 0.000000 
9.999443 9.997749 0.000000 -90.025597 85.996727 -0.023873 -0.002165 9.999076 0.998546 14.998176 0.000000 0.000000 27.997561 0.000000 0.000000 15.996989 0.000000 0.000000 0.000000 0.000000 0.000000 -74.002686 12.996549 19.998129 -40.921570 3.076768 19.915003 -13.722112 -1.189693 -23.442295 0.000000 0.000000 -10.002190 -14.001401 41.997864 -60.001278 126.996826 -5.002732 -11.381001 -10.000309 14.999073 -0.000910 -27.002258 14.998038 -0.003271 59.152657 -0.061757 6.154094 49.998291 -0.002817 4.997856 -33.374786 -14.976781 -7.116586 90.995331 0.000000 0.000000 26.996685 0.000000 0.000000 
